<?xml version="1.0" encoding="UTF-8"?>
<svg id="Capa_2" xmlns="http://www.w3.org/2000/svg" version="1.1" viewBox="0 0 242.1 273.11">
  <!-- Generator: Adobe Illustrator 30.1.0, SVG Export Plug-In . SVG Version: 2.1.1 Build 136)  -->
  <g id="Layer_1">
    <path d="M13.29,230.23c-.95,15.37,10.87,24.93,16.1,24.93l88.77-.18c-6.96-3.9-18.19-4.15-24.85-23.13-4.64-13.23,2.61-48.7-2.92-53.44-1.73-1.48-5.07-3.61-7.08-4.96-4.99-3.34-9.13-6.53-14.13-9.95l-21.33-14.82c-3.05-2-4.08-3.92-6.9-5.6.01,10.95-.98,21.63-1.02,32.87-.04,11.21.36,23.06-.05,34.18-.42,11.15,1.69,22.45-5.48,28.56-3.52,3-8.91,3.63-13.53,1.49-5.46-2.53-4.95-5.39-7.57-9.95h-.01Z" fill="none" stroke="#1d1d1b" stroke-miterlimit="22.93" stroke-width=".22"/>
    <path d="M167.52,95.74c4.29,2.22,11.58,8.32,15.82,11.45l44.77,33.18c1.29-49.13-19.61-121.84-74.36-122.25,2.1,1.99-4.72.61-2.19,2.22,2.86,1.82,5.34,3.73,7.41,5.97,16.48,17.89,9.29,40.7,8.55,69.42h0Z" fill="none" stroke="#1d1d1b" stroke-miterlimit="22.93" stroke-width=".22"/>
    <path d="M77.38,70.61l3.91.16c.55,4.67,5.94,18.69,8.3,21.9l6.54,8.84c17.57,26.45,15.12,15.74,23.14,22.38,6.2,5.13,15.1,5.86,20.41,10.37,1.76,3.65-1.72,1.91,4.45,4.94l20.7,12.7c-1.31-2.24-4.62-6.68-6.47-8.2-13.85-11.38-11.67-7.53-26.6-17.57-11.71-7.87-23.21-13.01-32.69-26.88-3.75-5.49-8.95-10.15-11.23-18.31-2.27-8.14-4.58-15.45-2.7-24.82,1.86-9.25,18.38-39.3,18.23-39.66-2.7.35-5.52,5.53-7.17,7.87-5.09,7.22-8.24,11.57-11.49,20.66-2.13,5.95-1.75.87-3.21,8.84-.49,2.67-.57,2.24-1.35,2.83-3.6-2.46.88-18.39,2.12-22.17,2.69-8.19,5.72-11.76,8.78-18.27-5.43,0-4.64,1.06-8.74,8.9-5.35,10.25-9.07,34.12-4.93,45.48h0Z" fill="none" stroke="#1d1d1b" stroke-miterlimit="22.93" stroke-width=".22"/>
    <path d="M143.59,255.09c14.32.44,11.06-.77,15.93-11.48,1.24-2.73,4.8-12.9,4.54-15.8-.93-10.33-5.96-22.05-11.68-29.8-6.71-9.08-16.91-18.93-25.97-25.58-6.14-4.51-12.05-11.18-19.63-12.62,3.36,3.52,12.52,9.21,18.11,14.82,1.25,1.25,1.73,1.55,2.76,2.59l18.8,20.04c2.49,3.45,5.85,8.35,7.17,12.25,3.54,10.49,1.53,24.08-1.81,34.42-2.07,6.42-5.58,7.64-8.24,11.16h.02Z" fill="none" stroke="#1d1d1b" stroke-miterlimit="22.93" stroke-width=".22"/>
    <path d="M220.83,187.78c3.1-6.55-.5-12.03-3.42-17.51-6.24-11.71-10.61-19.47-21.28-26.94-5.14-3.6-8.73-7.46-13.62-11.16-9.02-6.83-18.48-13.24-28.87-19.31l-23.1-13.03c-2.32-1.26-5.67-3.49-8.08-4.37,1.24,2.68-.15,1.33,1.98,3.11l38.64,27.62c7.02,4.76,13.51,7.01,22.11,13.35,2.63,1.94,4.09,3.45,6.58,5.46,5.51,4.47,4.38,3.51,8.73,9.35,3.39,4.56,1.92.38,6.57,5.5,12.36,13.6,7.63,17.15,13.76,27.92h0Z" fill="none" stroke="#1d1d1b" stroke-miterlimit="22.93" stroke-width=".22"/>
    <path d="M13.29,41.16c2.91-5.11,2.44-8.81,9.56-10.7,6.55-1.73,12.83,1.55,14.57,5.85,2.54,6.25,2.54,30.14,7.8,33.53-2.58-7.6-3.55-19.24-3.12-28.11.52-10.73,3.23-17.01,5.49-26.29-11.53-.19-19.12-1.36-25.24,4.49-5.41,5.17-9.82,9.43-9.06,21.23Z" fill="none" stroke="#1d1d1b" stroke-miterlimit="22.93" stroke-width=".22"/>
    <path d="M77.92,107.72c5.81-1.39,3.9-4.22,9.45,5.95,1.73,3.17,8.13,10.96,10.01,12.1l8.69,5.37c3.93,2.33,7.77,4.68,12.18,5.73-12.92-8.37-27.25-19.71-33.28-34.18l-3.62-6.63c-6.83,13.82-16.09-25.35-17.02-32.23-2.16-16.02,2.36-36.37,9.45-47.61-4.63,1.61-9.98,13.57-11.59,19.55-6.15,22.82-1.51,42.29,9.64,61.98,2.03,3.58,4.57,6.97,6.1,9.96h-.01Z" fill="none" stroke="#1d1d1b" stroke-miterlimit="22.93" stroke-width=".22"/>
    <path d="M193.29,228.53c1.6-1.49,5.08-3.74,4.87-6.77-1.09-16.01-16.06-50.88-25.17-59.5l-.26,1.11c-.37,3.37.3,3.94,2.14,6.66,11.62,17.13,11.09,33.05,14.06,41.54,1.12,3.21,4.41,14.6,4.35,16.96h0Z" fill="none" stroke="#1d1d1b" stroke-miterlimit="22.93" stroke-width=".22"/>
    <path d="M48.91,107.69c-2.5.64-3.39-2.6-5.27-4.7-1.3,7.27,14.68,19.54,19.76,24.03,3.75,3.32,7.53,6.22,13.39,8.7,2.84,1.2,13.38,6.42,15.1,5.34-4.95-3.36-7.16-2.98-16.23-10.25-5.61-4.5-9.74-8.19-13.99-13.47-3.91-4.87-7.88-9.71-10.99-15.82-7.13-14.05-4.9-13.92-7.03-19.91-.36,3.28,2.4,16.91,3.64,19.99,1.05,2.62,2.31,3.95,1.62,6.08h0Z" fill="none" stroke="#1d1d1b" stroke-miterlimit="22.93" stroke-width=".22"/>
    <path d="M109.94,169.61c-11.05-6.9-2.69-8.28-32.12-22.83-9.93-4.91-21.55-11.78-29.43-19.44-1.47-1.43-2.12-2.51-3.58-3.75,2.29,5.79,8.47,11.94,12.22,15.22,9.74,8.5,22.79,15.94,34.77,21.44,6.3,2.89,11.98,6.59,18.15,9.37h-.01Z" fill="none" stroke="#1d1d1b" stroke-miterlimit="22.93" stroke-width=".22"/>
    <path d="M135.16,113.48c-6.67-7.27-25.59-10.7-32.07-38.41-3.74-15.99-3.3-28.82,3.12-44.71,2.37-5.88,3.9-7.06,6.81-11.45-5.43,2.59-10.91,16.42-12.94,24.78-2.63,10.78-1.03,4.93-1.93,12.17-.62,4.95-5.4,5.28.78,18.69,2.74,5.95,4.3,16.9,13.46,24.07,5.43,4.24,14.22,13.02,22.77,14.86Z" fill="none" stroke="#1d1d1b" stroke-miterlimit="22.93" stroke-width=".22"/>
    <path d="M160.99,176.75l4.48,6.8,2.19-3.66c3.4.35,6.71,4.45,8.49,6.53-4.47-15.42-29.94-33.63-45.17-37.32-6.57-1.59-17.16-3.37-24.04-4.03,4.41,2.87,11.13,3.19,17.01,5.03,8.11,2.54,24.14,9.03,30.34,13.79,2.07,1.59,8.32,7.28,7.66,10.33l-.95,2.52h-.01Z" fill="none" stroke="#1d1d1b" stroke-miterlimit="22.93" stroke-width=".22"/>
    <path d="M203.25,181.01c2.44,1.76,4.35,6.18,5.07,9.14,1.24,5.13,2.1,10.08,3.33,15.31,8.69-7.6-4.39-23.09-7.32-30.97l-4.05.82c-1.47-2.14-7.18-10.21-8.98-11.7-4.16-3.47-6.91-6.92-11.53-9.88,1.07,1.65,2.23,2.87,3.59,4.45,12.32,14.31,12.37,24.58,14.5,29,5.16,10.72.03-10.02,5.39-6.16h0Z" fill="none" stroke="#1d1d1b" stroke-miterlimit="22.93" stroke-width=".22"/>
    <path d="M166.38,249.54c3.88-2.11,14.42-10.06,14.95-15.15.3-2.92.04-7.1-.41-10.02-.43-2.77-3.04-13.95-3.94-16.17-1.74-4.28-4.48-11.3-8.75-12.32,4.7,11.23,12.62,29,6.19,43.9-3.79,8.78-6.44,2.16-8.04,9.76h0Z" fill="none" stroke="#1d1d1b" stroke-miterlimit="22.93" stroke-width=".22"/>
    <path d="M169.31,220.06c.48-10.52-16.18-43.1-32.46-46.07,1.78,2.41,11.31,10.06,18.86,20.67,3.04,4.27,12.79,19.73,13.6,25.39h0Z" fill="none" stroke="#1d1d1b" stroke-miterlimit="22.93" stroke-width=".22"/>
    <path d="M68.28,110.44c-3.81-10.9-8.65-13.02-14.2-34.43-1.06-4.07-1.69-9-3.21-12.78-.82,9.7,3.62,31.23,9.14,39.04l6.89,7.24c1.09.83-.17.08,1.38.93Z" fill="none" stroke="#1d1d1b" stroke-miterlimit="22.93" stroke-width=".22"/>
    <path d="M49.42,50.65c1.33-2.81,1.27-13.52,3.68-19.28.91-2.17.9-1,1.95-3.4.65-1.5.87-2.97,1.5-4.54,1.03-2.57,4.87-6.81.88-7.21-2.69-.27-2.03,1.78-4.1,6.68-2.46,5.82-7.15,22.26-3.92,27.76h0Z" fill="none" stroke="#1d1d1b" stroke-miterlimit="22.93" stroke-width=".22"/>
  </g>
</svg>